<svg>
  <symbol id="logo-icon" xmlns="http://www.w3.org/2000/svg" width="34" height="38" fill="none"><g clip-path="url(#a)"><path fill="#FDC305" d="M6.07 20.72v-2.26c6.68-.92 13.42-1.36 20.17-1.33 0 .6 0 1.21-.06 1.82a25.52 25.52 0 0 1 6-1.82A16.67 16.67 0 0 0 .19 20.39l5.88.33ZM27.24 24.23c-1.16 1.28-1.39 1.2-1.39 3.45v9.18A16.64 16.64 0 0 0 33.32 23a17.3 17.3 0 0 0-.32-3.1 33.1 33.1 0 0 0-5.76 4.33ZM6.36 25.72s-3.79-1.44-5.19-1.83A8.54 8.54 0 0 0 0 23.61a16.65 16.65 0 0 0 8.68 14L6.36 25.72Z"/><path fill="#F06351" d="M26.29 17.12A89.8 89.8 0 0 0 24.89.65S24.75-.64 24 .41c-.59 1.25-1 2.58-1.2 3.94a70.34 70.34 0 0 0-12.77.34C9.24 2 7.85.75 7.18 1c-.67.25-.72 3.31-.72 3.31l-.33 14.1c6.68-.9 13.42-1.34 20.16-1.29Z"/><path fill="#000" d="M12.41 14c0-.09 1 .68 1.41.92.41.24.61.42.61.59 0 .17-.27.34-.63.34s-.91-.12-1-.27h1.23A8.34 8.34 0 0 1 12.41 14ZM19.89 14.11l-1.09 1.33c0 .06-.17.35.18.3.41-.06.82-.16 1.22-.29.11 0 .07-.19-.11-.17-.18.02-.69.05-1 .11l.84-1.26s.07-.13-.04-.02ZM16.75 20.2c.46-.2.85-.56 1.09-1 .28-.65 0-.91-.44-1-.6-.11-1.22.01-1.74.34-.39.36-.34.72-.05 1 .35.27.73.49 1.14.66Z"/><path fill="#F06351" d="M16.35 21.45c-.11.23-.27.43-.46.6-.28.23-.63.36-1 .38a2.15 2.15 0 0 1-1.47-.43 2.3 2.3 0 0 1-.53-.44c-.1-.11-.22-.2-.36-.26 0 0 .75 4.1 2.57 4.75 1.82.65 2.14-.75 2.2-1.13a5.61 5.61 0 0 0-.82-3.23c-.02-.31-.03-.11-.13-.24Z"/><path fill="#000" d="M14.71 22.59a3.44 3.44 0 0 1-2.36-1.47.14.14 0 0 1 .03-.15.14.14 0 0 1 .2 0c.5.7 1.26 1.16 2.11 1.3a2.1 2.1 0 0 0 1.63-1l.14-.19.1.21s.37.76 1 .8c.63.04 1.05-.41 1.61-1.28a.14.14 0 0 1 .2 0 .15.15 0 0 1 .05.2c-.64 1-1.27 1.44-1.88 1.4a1.55 1.55 0 0 1-1.12-.76 2.26 2.26 0 0 1-1.71.94Z"/><path fill="#F06351" d="M26.24 18.92a58.63 58.63 0 0 0-5.07 5.19A31.63 31.63 0 0 1 15.88 29c-.22-.53-1.62-1.51-1.62-1.51s-3.13-2.14-5.18-3.82a34.14 34.14 0 0 1-3.13-3l-2-.11c2.89 4.2 7.12 7.3 12 8.8.86-.14 3.27-1.86 5.07-3.26a58.13 58.13 0 0 0 5.94-5.89c.5-.59.89-1.27 1.14-2-1.1.39-1.86.71-1.86.71Z"/></g><defs><clipPath id="a"><path fill="#fff" d="M0 0h33.32v37.61H0z"/></clipPath></defs></symbol>

  <symbol id="logo-text" xmlns="http://www.w3.org/2000/svg" width="101" height="18" fill="none"><g fill="#111" clip-path="url(#a)"><path d="M1.26 16.54A6.86 6.86 0 0 1 0 12.24v-6.4C-.1 4.3.3 2.77 1.19 1.47 2.05.46 3.39 0 5.37 0 7.35 0 8.61.46 9.4 1.3a5.42 5.42 0 0 1 1.19 3.78v1.54H6.72V4.85a3.7 3.7 0 0 0-.24-1.54 1.16 1.16 0 0 0-1.1-.62c-.56 0-.95.16-1.11.54a4.85 4.85 0 0 0-.24 1.7v8.22c-.04.56.07 1.12.32 1.62.15.38.55.54 1.1.54.56 0 .87-.16 1.03-.54.18-.52.26-1.07.24-1.62v-1.84h3.87v1.54a5.77 5.77 0 0 1-1.19 3.84c-.79.93-2.13 1.39-4.03 1.39-1.9-.08-3.32-.54-4.1-1.54ZM15.25.23h4.5l3.33 17.54h-3.64l-.63-3.7h-2.6l-.64 3.7h-3.72L15.25.23Zm3.24 11.54-.95-6.85-.94 6.85h1.9ZM25.84 3.15h-2.68V.23h9.4v2.85h-2.69v14.69h-4.03V3.15ZM39.75.23h6.96v1.85h-4.5v5.77h3.63v1.77H42.2v6.46h4.5v1.77h-7.03V.23h.08ZM48.76.23h1.74l5.14 11.62V.23h2.05v17.54h-1.58l-5.21-12v12h-2.14V.23ZM60.06.23h6.96v1.85h-4.5v5.77h3.63v1.77H62.5v6.46h4.5v1.77h-6.95V.23ZM69.07.23h3.64c1.43-.1 2.85.28 4.03 1.08C77.6 2 78 3.23 78 4.85c0 2.23-.7 3.61-2.21 4.07l2.53 8.77h-2.45L73.5 9.46h-1.98v8.23H69V.23h.08Zm3.48 7.54c.81.06 1.63-.15 2.3-.62.47-.38.7-1.15.7-2.3a4.85 4.85 0 0 0-.23-1.7c-.18-.39-.49-.71-.87-.92a3.69 3.69 0 0 0-1.74-.3h-1.1v5.76h.94v.08ZM81.16 16.46a7.61 7.61 0 0 1-1.1-4.46V6.15c-.02-1.11.11-2.22.4-3.3.26-.81.78-1.51 1.5-2 .88-.51 1.9-.75 2.92-.7 1.66 0 2.84.39 3.55 1.23a5.77 5.77 0 0 1 1.11 3.85v.62h-2.37V5.3c0-.65-.05-1.29-.16-1.93-.06-.4-.3-.76-.63-1a2.5 2.5 0 0 0-1.5-.38 2.42 2.42 0 0 0-1.58.46 1.75 1.75 0 0 0-.63 1.23c-.1.69-.16 1.38-.16 2.08v6.54c-.06 1 .1 2 .47 2.92.32.62.95.85 1.9.85a1.96 1.96 0 0 0 1.9-.93c.41-.97.6-2.02.55-3.07v-1.23h-2.3V9.08h4.59v8.69h-1.58l-.24-2c-.2.67-.64 1.25-1.22 1.66-.6.4-1.3.6-2.02.57a4.05 4.05 0 0 1-3.4-1.54ZM94.68 11.62 90.8.3h2.37l2.76 8.46L98.63.3H101l-3.87 11.3v6.16h-2.37v-6.15h-.08Z"/></g><defs><clipPath id="a"><path fill="#fff" d="M0 0h101v18H0z"/></clipPath></defs></symbol>

  <symbol id="open-mobile-menu" xmlns="http://www.w3.org/2000/svg" width="24" height="18" fill="none"><path stroke="#000" stroke-width="1.5" d="M0 1.25h24M0 9.25h24M0 17.25h24"/></symbol>

  <symbol id="close-mobile-menu" xmlns="http://www.w3.org/2000/svg" width="20" height="20" fill="none"><path stroke="#000" stroke-width="1.5" d="M0-.75h24.758" transform="scale(.97098 1.0282) rotate(-45 24.51 7.237)"/><path stroke="#000" stroke-width="1.5" d="M0-.75h24.758" transform="matrix(.68659 .72705 -.68659 .72705 1 2)"/></symbol>

  <symbol id="footer-logo-text" xmlns="http://www.w3.org/2000/svg" width="128" height="24" fill="none"><g fill="#111" clip-path="url(#a)"><path d="M1.603 22.051A9.498 9.498 0 0 1 0 16.308V7.795a9.63 9.63 0 0 1 1.502-5.846C2.604.615 4.307 0 6.811 0s4.106.615 5.108 1.744a7.487 7.487 0 0 1 1.502 5.025v2.052H8.513V6.46a5.157 5.157 0 0 0-.3-2.05 1.463 1.463 0 0 0-.579-.63 1.415 1.415 0 0 0-.823-.191c-.701 0-1.202.205-1.403.718a6.774 6.774 0 0 0-.3 2.256v10.974a4.334 4.334 0 0 0 .4 2.154c.2.513.702.718 1.403.718.7 0 1.102-.205 1.302-.718.228-.693.33-1.423.3-2.154v-2.461h4.908v2.051a7.98 7.98 0 0 1-1.502 5.128c-1.002 1.231-2.705 1.847-5.108 1.847-2.404-.103-4.207-.718-5.208-2.052ZM19.33.308h5.71l4.206 23.384h-4.607l-.802-4.923h-3.305l-.801 4.923h-4.708L19.33.308Zm4.107 15.384-1.202-9.128-1.202 9.128h2.404ZM32.751 4.205h-3.405V.308h11.918v3.794H37.86v19.59h-5.108V4.205ZM50.379.308h8.814v2.461h-5.71v7.692h4.608v2.36h-4.607v8.615h5.709v2.359h-8.914V.308h.1ZM61.797.308H64l6.51 15.487V.308h2.604v23.384h-2.003l-6.61-16v16h-2.704V.308ZM76.119.308h8.814v2.461h-5.71v7.692h4.608v2.36h-4.607v8.615h5.709v2.359h-8.814V.308ZM87.537.308h4.607a7.873 7.873 0 0 1 5.108 1.436c1.102.923 1.602 2.564 1.602 4.717 0 2.975-.901 4.821-2.804 5.436l3.205 11.693H96.15l-3.005-10.975h-2.503V23.59h-3.205V.308h.1Zm4.407 10.05a4.302 4.302 0 0 0 2.904-.82c.601-.512.902-1.538.902-3.077a6.772 6.772 0 0 0-.3-2.256 2.583 2.583 0 0 0-1.103-1.23 4.473 4.473 0 0 0-2.203-.411h-1.402v7.692h1.202v.103ZM102.861 21.949a10.566 10.566 0 0 1-1.402-5.95V8.206c-.025-1.486.143-2.97.5-4.41a5.204 5.204 0 0 1 1.903-2.667 6.421 6.421 0 0 1 3.706-.923c2.103 0 3.606.513 4.507 1.641a7.982 7.982 0 0 1 1.402 5.128v.82h-3.004v-.717a15.503 15.503 0 0 0-.201-2.564 2.056 2.056 0 0 0-.801-1.334 3.04 3.04 0 0 0-1.903-.512 2.955 2.955 0 0 0-2.003.615 2.349 2.349 0 0 0-.801 1.641 19.734 19.734 0 0 0-.201 2.77v8.717a9.527 9.527 0 0 0 .601 3.898c.401.82 1.202 1.128 2.404 1.128.475.06.956-.024 1.384-.243a2.45 2.45 0 0 0 1.02-.988 9.635 9.635 0 0 0 .701-4.102V14.46h-2.905v-2.359h5.809v11.59h-2.003l-.3-2.666a4.18 4.18 0 0 1-1.554 2.21 4.016 4.016 0 0 1-2.553.764 4.907 4.907 0 0 1-2.406-.47 5.037 5.037 0 0 1-1.9-1.581ZM119.987 15.487 115.08.41h3.004l3.506 11.282L124.995.41H128l-4.908 15.077v8.205h-3.004v-8.205h-.101Z"/></g><defs><clipPath id="a"><path fill="#fff" d="M0 0h128v24H0z"/></clipPath></defs></symbol>

  <symbol id="logo-vkontakte" xmlns="http://www.w3.org/2000/svg" width="28" height="22" fill="none"><path fill="#666" d="M1 5.339c0-.855.515-1.316 1.545-1.383l3.97.025a.52.52 0 0 1 .533.377c.409 1.257.866 2.343 1.372 3.257.506.913 1.168 1.965 1.985 3.156.071.15.187.226.346.226.125 0 .223-.059.293-.176l.08-.277.027-4.35c0-.302-.075-.503-.226-.604-.151-.1-.431-.176-.84-.226-.32-.05-.48-.235-.48-.553 0-.067.01-.118.027-.151.373-1.09 1.44-1.635 3.198-1.635L14.322 3c.675 0 1.234.16 1.678.478.444.318.666.821.666 1.509v5.708c.125.084.24.126.347.126.266 0 .497-.15.692-.453 1.954-2.582 3.011-4.308 3.17-5.18 0-.017.019-.059.054-.126.125-.251.329-.47.613-.654.284-.184.533-.31.746-.377a.554.554 0 0 1 .24-.05h4.13l.266.025c.355 0 .63.16.826.478.07.1.12.21.146.327.027.117.045.234.054.352.009.117.013.184.013.2v.177c-.124.687-.44 1.42-.946 2.2-.506.78-1.15 1.622-1.931 2.528-.782.905-1.27 1.5-1.466 1.785-.16.201-.24.386-.24.553 0 .135.071.286.213.453l3.89 4.627c.213.269.32.562.32.88 0 .386-.16.705-.48.956-.32.252-.701.394-1.145.428l-.453.025h-4.05a.855.855 0 0 0-.106.012.862.862 0 0 1-.107.013c-.39 0-.755-.16-1.092-.478-.125-.134-.96-1.123-2.505-2.967a1.387 1.387 0 0 0-.373-.327c-.07.268-.164.654-.28 1.157-.115.503-.2.863-.253 1.081l-.08.427c-.177.587-.55.94-1.119 1.057l-.373.025h-2.61c-1.475 0-2.945-.637-4.41-1.911-1.466-1.275-2.784-2.922-3.957-4.942-1.172-2.02-2.264-4.372-3.277-7.054A1.916 1.916 0 0 1 1 5.338Zm16.013 6.513c-.373 0-.71-.096-1.013-.29-.302-.192-.453-.456-.453-.791V4.987c0-.336-.089-.575-.266-.717-.178-.143-.489-.214-.933-.214l-1.518.05c-.764 0-1.341.126-1.732.378.781.352 1.172.922 1.172 1.71v4.426a1.5 1.5 0 0 1-.533 1.044 1.59 1.59 0 0 1-1.066.414c-.532 0-.94-.243-1.225-.729C8.06 9.371 7.03 7.493 6.356 5.716l-.24-.654-3.544-.025c-.231 0-.36.013-.386.038-.027.025-.04.096-.04.213 0 .151.017.31.053.478l.56 1.409c1.491 3.638 3.112 6.505 4.862 8.6 1.75 2.096 3.468 3.144 5.155 3.144h2.665c.106 0 .186-.03.24-.088.053-.06.097-.172.133-.34l.053-.251.506-2.213c.142-.302.267-.503.373-.604a.975.975 0 0 1 .693-.277c.426 0 .861.243 1.305.73l2.265 2.716c.142.218.293.327.453.327h4.396c.533 0 .8-.126.8-.378a.466.466 0 0 0-.08-.251l-3.864-4.552c-.302-.352-.453-.73-.453-1.131 0-.403.142-.788.427-1.157.23-.336.679-.893 1.345-1.673a37.63 37.63 0 0 0 1.745-2.187c.498-.68.826-1.296.986-1.849l.08-.327a.371.371 0 0 1-.027-.163.574.574 0 0 0-.026-.189h-4.183c-.267.1-.48.252-.64.453l-.16.478c-.444 1.156-1.607 2.942-3.49 5.356a1.892 1.892 0 0 1-1.305.503Z"/></symbol>

  <symbol id="logo-youtube" xmlns="http://www.w3.org/2000/svg" width="28" height="22" fill="none"><path fill="#666" d="m17.85 10.793-5.236-3.491a.655.655 0 0 0-1.014.545v6.982a.654.654 0 0 0 1.014.546l5.237-3.491a.655.655 0 0 0 0-1.091Zm-4.94 2.814V9.07l3.403 2.27-3.404 2.268Zm12.48-8.563a2.4 2.4 0 0 0-1.452-1.637C20.218 1.978 14.251 2 14 2c-.25 0-6.218-.022-9.938 1.407A2.4 2.4 0 0 0 2.61 5.044C2.327 6.113 2 8.076 2 11.338c0 3.262.327 5.226.61 6.295a2.4 2.4 0 0 0 1.452 1.636c3.72 1.43 9.687 1.407 9.938 1.407h.076c.753 0 6.317-.043 9.862-1.407a2.4 2.4 0 0 0 1.451-1.636c.284-1.07.611-3.033.611-6.295s-.327-5.225-.61-6.294Zm-1.266 12.261a1.09 1.09 0 0 1-.655.742c-3.49 1.342-9.404 1.32-9.469 1.32-.066 0-5.978.022-9.47-1.32a1.09 1.09 0 0 1-.654-.742c-.261-1.003-.567-2.847-.567-5.967 0-3.12.306-4.963.567-5.967a1.09 1.09 0 0 1 .655-.742C8.02 3.287 13.935 3.31 14 3.31c.066 0 5.978-.022 9.47 1.32a1.092 1.092 0 0 1 .654.742c.262 1.004.567 2.847.567 5.967 0 3.12-.305 4.964-.567 5.967Z"/></symbol>

  <symbol id="logo-telegram" xmlns="http://www.w3.org/2000/svg" width="28" height="22" fill="none"><path fill="#666" fill-rule="evenodd" d="M23.46 3.153c.18.15.265.382.227.611l-2.626 15.757a.657.657 0 0 1-1.012.439l-7.878-5.253a.657.657 0 0 1-.149-.956l2.611-3.263-4.36 2.906a.657.657 0 0 1-.658.041L4.363 10.81a.657.657 0 0 1 .073-1.205l18.383-6.566a.657.657 0 0 1 .642.115Zm-17.134 7.17 3.536 1.768 7.561-5.041a.656.656 0 0 1 .877.956l-4.805 6.006 6.438 4.292L22.208 4.65 6.326 10.323Z" clip-rule="evenodd"/></symbol>

  <symbol id="logo-academy-text" xmlns="http://www.w3.org/2000/svg" width="112" height="15" fill="none"><path fill="#444" d="M9.75.54V12H8.2V6.78H2.02V12H.46V.54h1.56v5.1H8.2V.55h1.55Zm10.68 1.3h-3.7V12h-1.55V1.84h-3.72V.54h8.97v1.3ZM34.06.54V12H32.7V3.58a8.56 8.56 0 0 1 .04-.76L28.81 10c-.12.24-.31.36-.56.36h-.23c-.25 0-.43-.12-.56-.36l-4.01-7.2a7 7 0 0 1 .05.79V12h-1.36V.54h1.14a1 1 0 0 1 .32.04c.07.02.15.1.22.22l3.96 7.06a6.97 6.97 0 0 1 .36.82 9.93 9.93 0 0 1 .36-.83L32.38.8c.07-.12.14-.2.21-.22.08-.03.2-.04.33-.04h1.14ZM43.5 10.7V12H37V.54h1.54V10.7h4.96Zm10.88-2.96-1.8-4.66a9.55 9.55 0 0 1-.34-1.07c-.1.43-.22.79-.34 1.08l-1.8 4.65h4.28ZM57.61 12h-1.2a.52.52 0 0 1-.33-.1.64.64 0 0 1-.2-.27l-1.07-2.77h-5.14l-1.07 2.77c-.04.1-.1.18-.19.26-.09.07-.2.11-.33.11h-1.2L51.46.54h1.57L57.6 12Zm6.6-6.66a.64.64 0 0 1-.13.13.29.29 0 0 1-.18.05.49.49 0 0 1-.26-.1 3.65 3.65 0 0 0-.88-.44c-.2-.07-.46-.1-.75-.1-.4 0-.76.07-1.06.22-.3.13-.56.34-.77.6-.2.27-.36.6-.46.97-.1.38-.15.8-.15 1.27 0 .5.05.93.16 1.32.12.37.27.7.48.96.2.25.45.45.74.59.3.13.62.2.98.2.35 0 .64-.04.86-.12.22-.09.4-.18.55-.28l.37-.27c.1-.09.2-.13.3-.13.11 0 .2.04.27.13l.4.52c-.18.22-.38.4-.6.56a3.81 3.81 0 0 1-1.54.62c-.28.05-.57.07-.86.07-.5 0-.98-.1-1.42-.28-.43-.18-.8-.45-1.13-.8-.32-.36-.57-.8-.75-1.32a5.33 5.33 0 0 1-.27-1.77c0-.6.08-1.16.25-1.67.17-.51.41-.95.73-1.32.33-.37.73-.66 1.2-.87.47-.2 1.01-.31 1.63-.31a3.55 3.55 0 0 1 2.66 1.06l-.37.5Zm6.39 3.01c-.66.02-1.22.08-1.68.16-.46.08-.84.19-1.13.32-.29.14-.5.3-.63.47-.13.19-.2.39-.2.61 0 .22.04.4.11.55.07.16.16.29.28.39.12.1.26.17.42.21.17.05.35.07.53.07a2.65 2.65 0 0 0 1.27-.3 4.36 4.36 0 0 0 1.02-.8V8.35ZM66 5.04a4.47 4.47 0 0 1 3.17-1.29c.45 0 .85.08 1.2.23a2.48 2.48 0 0 1 1.44 1.59c.12.38.18.8.18 1.25V12h-.63a.65.65 0 0 1-.32-.06c-.08-.05-.14-.14-.18-.28l-.16-.76c-.21.2-.42.37-.62.52a3.45 3.45 0 0 1-1.36.62 3.69 3.69 0 0 1-1.73-.04c-.28-.1-.52-.22-.73-.4-.2-.18-.36-.4-.49-.66-.11-.28-.17-.6-.17-.96 0-.32.09-.63.26-.92.18-.3.46-.57.86-.8.4-.23.9-.41 1.54-.56.64-.15 1.42-.23 2.34-.25v-.63c0-.63-.14-1.1-.41-1.43-.27-.32-.67-.49-1.2-.49a2.53 2.53 0 0 0-1.5.44c-.17.1-.32.2-.44.3a.64.64 0 0 1-.37.12.42.42 0 0 1-.25-.07.76.76 0 0 1-.18-.2L66 5.05Zm13.44.78c-.27-.35-.56-.6-.86-.74-.31-.14-.66-.22-1.04-.22-.76 0-1.34.27-1.74.81-.4.54-.6 1.3-.6 2.3 0 .53.04.99.13 1.37.09.37.22.68.4.92.17.24.39.42.65.53.25.11.54.17.87.17.47 0 .87-.1 1.22-.32.35-.21.68-.51.97-.9V5.82Zm1.42-5.6V12h-.84c-.2 0-.34-.1-.39-.3l-.13-.98c-.34.42-.74.75-1.18 1-.44.26-.96.4-1.54.4a2.66 2.66 0 0 1-2.23-1.06 3.75 3.75 0 0 1-.61-1.3 6.67 6.67 0 0 1 .02-3.45c.16-.52.39-.96.69-1.34a3.16 3.16 0 0 1 2.57-1.22 2.9 2.9 0 0 1 2.22.95V.22h1.42Zm7.68 6.84c0-.33-.05-.63-.15-.9a1.92 1.92 0 0 0-1.93-1.34c-.68 0-1.22.2-1.62.6-.4.4-.64.94-.74 1.64h4.44Zm1.15 3.8c-.18.22-.39.4-.63.56a4.03 4.03 0 0 1-1.66.61c-.3.06-.6.08-.89.08a4.2 4.2 0 0 1-1.55-.28 3.51 3.51 0 0 1-2.02-2.19 5.51 5.51 0 0 1-.04-3.44c.18-.5.43-.91.76-1.27.32-.36.72-.65 1.19-.85a3.87 3.87 0 0 1 2.93-.06c.41.16.77.4 1.07.7.3.3.54.68.71 1.14.17.44.26.96.26 1.53 0 .23-.03.38-.08.45-.04.07-.13.11-.27.11h-5.41c.01.51.08.96.2 1.34.13.38.3.7.53.95.23.25.5.44.8.57.31.12.66.18 1.04.18a3.1 3.1 0 0 0 1.6-.39c.18-.1.34-.18.46-.26a.63.63 0 0 1 .33-.13c.11 0 .2.04.27.13l.4.52ZM91.57 12V3.9h.85c.2 0 .33.1.38.3l.1.82c.3-.36.64-.67 1-.9.38-.23.81-.35 1.3-.35.55 0 .99.15 1.33.45.34.3.58.72.73 1.24a2.65 2.65 0 0 1 1.8-1.6 3.32 3.32 0 0 1 1.93.12c.34.13.62.33.85.59.23.26.41.58.53.97.13.37.19.8.19 1.3V12h-1.43V6.84c0-.63-.14-1.11-.42-1.44-.28-.33-.68-.5-1.2-.5a1.8 1.8 0 0 0-1.22.5c-.16.15-.3.35-.39.6-.09.24-.13.52-.13.84V12h-1.44V6.84c0-.65-.13-1.14-.39-1.46-.26-.32-.64-.48-1.14-.48-.35 0-.68.1-.98.3-.3.18-.57.43-.82.76V12h-1.43Zm19.94-8.1L107 14.4c-.05.1-.1.18-.18.25-.07.06-.18.1-.33.1h-1.06l1.48-3.22-3.34-7.63h1.23c.12 0 .22.03.29.1.07.05.12.12.15.2l2.17 5.1c.08.22.16.45.21.7.08-.25.16-.49.25-.71l2.1-5.1a.44.44 0 0 1 .16-.2.44.44 0 0 1 .26-.1h1.13Z"/></symbol>

  <symbol id="logo-academy-icon" xmlns="http://www.w3.org/2000/svg" width="27" height="34" fill="none"><g clip-path="url(#a)"><path fill="#666" d="M13.64.02 13.5 0 0 1.4v24.61L13.5 34 27 26.01V1.41L13.64 0Zm11.6 25L13.5 31.96 1.77 25.02v-10.1l11.68 6.93.02 1.25-8.02-4.75v1.23l8.04 4.8.02 1.3-8.05-4.76v1.22l8.04 4.81 8.12-4.83V16.9l3.62-2.15v10.26Zm0-11.57L22 15.33l-1.48.88-7.06-4.19-.01 1.23 6.04 3.57-.06.03-.13.07-.86.5-4.98-2.95-.01 1.22 3.93 2.33-.93.61-.02.01-2.97-1.74-.01 1.23 1.94 1.13-1.98 1.19L1.8 13.58l11.63-6.96 11.8 6.83Zm0-1.22L13.43 5.3 1.77 12.22V2.99L13.5 1.76 25.23 3v9.24Z"/></g><defs><clipPath id="a"><path fill="#fff" d="M0 0h27v34H0z"/></clipPath></defs></symbol>

  <symbol id="plus" xmlns="http://www.w3.org/2000/svg" width="30" height="30" fill="none"><path stroke="#D3D3D3" stroke-width="2" d="M15 0v30M30 15H0"/></symbol>

  <symbol id="gift" xmlns="http://www.w3.org/2000/svg" width="78" height="80" fill="none"><path fill="#fff" d="M64.02 34.71H14.03a3.17 3.17 0 0 1-3.18-3.16v-9.47a3.17 3.17 0 0 1 3.18-3.16h49.98a3.17 3.17 0 0 1 3.19 3.16v9.47a3.17 3.17 0 0 1-3.18 3.16ZM14.03 21.35c-.4 0-.74.33-.74.73v9.47c0 .41.33.74.74.74h49.98c.41 0 .75-.33.75-.74v-9.47c0-.4-.34-.73-.75-.73H14.03Z"/><path fill="#fff" d="M57.04 67.15H21a6.11 6.11 0 0 1-6.13-6.09V33.5c0-.67.55-1.2 1.22-1.2.68 0 1.22.53 1.22 1.2v27.56A3.68 3.68 0 0 0 21 64.73h36.04a3.68 3.68 0 0 0 3.7-3.67V33.5a1.22 1.22 0 0 1 2.44 0v27.56a6.11 6.11 0 0 1-6.14 6.09Z"/><path fill="#fff" d="M39.02 67.15c-.67 0-1.22-.54-1.22-1.21V33.5c0-.67.55-1.2 1.22-1.2.68 0 1.22.53 1.22 1.2v32.44c0 .67-.54 1.2-1.22 1.2ZM23.81 21.34a7.8 7.8 0 0 1-3.17-10.6A7.9 7.9 0 0 1 31.3 7.6c5.82 3.13 8.96 11.86 9.09 12.23l-2.3.8c-.03-.08-2.96-8.22-7.95-10.9a5.46 5.46 0 0 0-7.36 2.17 5.39 5.39 0 0 0 2.2 7.32l-1.17 2.13Z"/><path fill="#fff" d="m54.23 21.34-1.16-2.13a5.38 5.38 0 0 0-1.03-9.92 5.43 5.43 0 0 0-4.14.43c-4.98 2.68-7.91 10.82-7.94 10.9l-2.3-.8c.13-.37 3.27-9.1 9.08-12.23a7.86 7.86 0 0 1 11.29 9.1c-.6 2-1.95 3.66-3.8 4.65ZM61.95 50.93H16.09c-.67 0-1.22-.54-1.22-1.21 0-.67.55-1.21 1.22-1.21h45.86c.67 0 1.22.54 1.22 1.21 0 .67-.55 1.21-1.22 1.21Z"/></symbol>

</svg>
